<svg width="132" height="30" viewBox="0 0 132 30" fill="none" xmlns="http://www.w3.org/2000/svg">
<path d="M75.5511 23.1218C72.8789 23.1218 70.967 21.2313 70.967 18.5479C70.967 15.8644 72.8409 13.974 75.513 13.974C78.1853 13.974 80.0592 15.9058 80.0592 18.5479C80.0592 21.19 78.1473 23.1218 75.5549 23.1218M75.5169 27.9287C81.5378 27.9287 85.9622 24.1854 85.9622 18.5479C85.9622 12.9104 81.6176 9.16702 75.5169 9.16702C69.4161 9.16702 65.0715 12.9104 65.0715 18.5479C65.0715 24.1854 69.4161 27.9287 75.5169 27.9287ZM51.7183 27.3386H57.4578V20.521C57.4578 19.0252 57.5757 16.9731 58.8529 15.6351C59.5713 14.8872 60.4874 14.2934 62.0002 14.2934C62.8365 14.2934 63.9122 14.4888 64.3113 14.5678V9.60302C63.7145 9.40756 63.3153 9.32863 62.6388 9.32863C60.2479 9.32863 58.5336 10.7869 57.4578 12.8765V9.76464H51.7183V27.3462V27.3386ZM35.2937 16.2214C35.6511 14.331 37.1676 13.1095 39.2811 13.1095C41.3945 13.1095 42.7477 14.2145 43.2266 16.2214H35.2937ZM39.1214 27.9287C43.7474 27.9287 46.9365 26.1172 48.2516 21.9755H42.5918C41.8354 23.1594 40.9193 23.6292 39.2051 23.6292C36.6127 23.6292 35.1797 21.9341 35.1797 19.5287H48.4569V18.9387C48.4569 12.7901 44.9903 9.16326 38.8896 9.16326C33.1499 9.16326 29.3603 12.9066 29.3603 18.5441C29.3603 24.1816 33.0663 27.9249 39.129 27.9249M12.0995 17.7173L15.5281 8.73105L18.8769 17.7173H12.0995ZM22.465 27.3349H28.8433L18.3447 0.928711H12.7229L2 27.3386H8.37822L10.2902 22.3738H20.6139L22.4461 27.3386L22.465 27.3349Z" fill="white" fill-opacity="0.3"/>
<path d="M104.705 19.6533H87.9619V27.9292H104.705V19.6533Z" fill="white" fill-opacity="0.3"/>
<path d="M130.269 27.9295L118.907 14.3694L129.87 1.51953H122.373L112.845 12.7533V1.51953H106.705V27.9295H112.845V16.38L122.373 27.9295H130.269Z" fill="white" fill-opacity="0.3"/>
</svg>
